<svg fill="none" height="48" viewBox="0 0 214 48" width="214" xmlns="http://www.w3.org/2000/svg" xmlns:xlink="http://www.w3.org/1999/xlink"><filter id="a" color-interpolation-filters="sRGB" filterUnits="userSpaceOnUse" height="54" width="48" x="0" y="-3"><feFlood flood-opacity="0" result="BackgroundImageFix"/><feBlend in="SourceGraphic" in2="BackgroundImageFix" mode="normal" result="shape"/><feColorMatrix in="SourceAlpha" result="hardAlpha" type="matrix" values="0 0 0 0 0 0 0 0 0 0 0 0 0 0 0 0 0 0 127 0"/><feOffset dy="-3"/><feGaussianBlur stdDeviation="1.5"/><feComposite in2="hardAlpha" k2="-1" k3="1" operator="arithmetic"/><feColorMatrix type="matrix" values="0 0 0 0 0 0 0 0 0 0 0 0 0 0 0 0 0 0 0.1 0"/><feBlend in2="shape" mode="normal" result="effect1_innerShadow_3046_38726"/><feColorMatrix in="SourceAlpha" result="hardAlpha" type="matrix" values="0 0 0 0 0 0 0 0 0 0 0 0 0 0 0 0 0 0 127 0"/><feOffset dy="3"/><feGaussianBlur stdDeviation="1.5"/><feComposite in2="hardAlpha" k2="-1" k3="1" operator="arithmetic"/><feColorMatrix type="matrix" values="0 0 0 0 1 0 0 0 0 1 0 0 0 0 1 0 0 0 0.1 0"/><feBlend in2="effect1_innerShadow_3046_38726" mode="normal" result="effect2_innerShadow_3046_38726"/><feColorMatrix in="SourceAlpha" result="hardAlpha" type="matrix" values="0 0 0 0 0 0 0 0 0 0 0 0 0 0 0 0 0 0 127 0"/><feMorphology in="SourceAlpha" operator="erode" radius="1" result="effect3_innerShadow_3046_38726"/><feOffset/><feComposite in2="hardAlpha" k2="-1" k3="1" operator="arithmetic"/><feColorMatrix type="matrix" values="0 0 0 0 0.0627451 0 0 0 0 0.0941176 0 0 0 0 0.156863 0 0 0 0.24 0"/><feBlend in2="effect2_innerShadow_3046_38726" mode="normal" result="effect3_innerShadow_3046_38726"/></filter><filter id="b" color-interpolation-filters="sRGB" filterUnits="userSpaceOnUse" height="46.6667" width="26.6667" x="10.6667" y="3.16667"><feFlood flood-opacity="0" result="BackgroundImageFix"/><feColorMatrix in="SourceAlpha" result="hardAlpha" type="matrix" values="0 0 0 0 0 0 0 0 0 0 0 0 0 0 0 0 0 0 127 0"/><feMorphology in="SourceAlpha" operator="erode" radius="1.66667" result="effect1_dropShadow_3046_38726"/><feOffset dy="2.5"/><feGaussianBlur stdDeviation="2.5"/><feComposite in2="hardAlpha" operator="out"/><feColorMatrix type="matrix" values="0 0 0 0 0.141176 0 0 0 0 0.141176 0 0 0 0 0.141176 0 0 0 0.1 0"/><feBlend in2="BackgroundImageFix" mode="normal" result="effect1_dropShadow_3046_38726"/><feBlend in="SourceGraphic" in2="effect1_dropShadow_3046_38726" mode="normal" result="shape"/></filter><linearGradient id="c" gradientUnits="userSpaceOnUse" x1="24" x2="26" y1=".000001" y2="48"><stop offset="0" stop-color="#fff" stop-opacity="0"/><stop offset="1" stop-color="#fff" stop-opacity=".12"/></linearGradient><linearGradient id="d" gradientUnits="userSpaceOnUse" x1="24" x2="24" y1="14" y2="34"><stop offset="0" stop-color="#fff" stop-opacity=".8"/><stop offset="1" stop-color="#fff" stop-opacity=".5"/></linearGradient><linearGradient id="e" gradientUnits="userSpaceOnUse" x1="24" x2="24" y1="0" y2="48"><stop offset="0" stop-color="#fff" stop-opacity=".12"/><stop offset="1" stop-color="#fff" stop-opacity="0"/></linearGradient><clipPath id="f"><rect height="48" rx="12" width="48"/></clipPath><g filter="url(#a)"><g clip-path="url(#f)"><rect fill="#0c111d" height="48" rx="12" width="48"/><path d="m0 0h48v48h-48z" fill="url(#c)"/><g filter="url(#b)"><path d="m14 17.2484h14.4546l-14.2178 14.2178 2.297 2.297 14.2178-14.2178v14.4546h.092l3.1564-3.1564v-13.3032l-3.5404-3.5404h-13.305l-3.1546 3.1546z" fill="url(#d)"/></g></g><rect height="46" rx="11" stroke="url(#e)" stroke-width="2" width="46" x="1" y="1"/></g><g fill="#0c111d"><path d="m73.26 25.5639h3.302v3.068h-3.302v4.368h-3.666v-4.368h-9.594v-2.678l9.932-11.778h3.328zm-8.58 0h4.914v-6.006z"/><path d="m85.7711 20.2079c1.2826 0 2.4266.2513 3.432.754 1.0226.5026 1.82 1.248 2.392 2.236.5893.988.884 2.1753.884 3.562 0 2.0626-.65 3.6746-1.95 4.836-1.3 1.144-3.1287 1.716-5.486 1.716-1.6294 0-2.9987-.2687-4.108-.806-1.092-.5374-1.924-1.248-2.496-2.132-.5547-.884-.8754-1.8547-.962-2.912h3.744c.5546 2.0106 1.82 3.016 3.796 3.016 1.2133 0 2.132-.338 2.756-1.014.6413-.676.962-1.586.962-2.73 0-1.1614-.3207-2.0627-.962-2.704-.6414-.6587-1.5514-.988-2.73-.988-1.56 0-2.756.65-3.588 1.95l-3.38-.338 1.274-10.478h12.038v3.068h-8.996l-.572 4.316c.936-.9014 2.2533-1.352 3.952-1.352z"/><path d="m106.91 14.1759c2.618 0 4.984.624 7.098 1.872 2.132 1.2306 3.198 3.744 3.198 7.54s-1.066 6.318-3.198 7.566c-2.114 1.2306-4.48 1.846-7.098 1.846h-6.344v-18.824zm-.13 15.548c1.196-.0174 2.262-.156 3.198-.416.954-.2774 1.76-.8667 2.418-1.768.676-.9014 1.014-2.2187 1.014-3.952 0-1.7334-.338-3.0507-1.014-3.952-.658-.9014-1.464-1.4907-2.418-1.768-.936-.2774-2.002-.416-3.198-.416h-2.548v12.272z"/><path d="m125.809 18.6999c1.508 0 2.799.338 3.874 1.014 1.092.6586 1.898 1.6033 2.418 2.834.537 1.2306.762 2.678.676 4.342h-10.504c.121 1.1786.494 2.0713 1.118 2.678.624.6066 1.438.91 2.444.91.884 0 1.594-.2167 2.132-.65.554-.4334.927-.9794 1.118-1.638h3.614c-.312 1.6293-1.084 2.8946-2.314 3.796-1.214.884-2.73 1.326-4.55 1.326-1.491 0-2.782-.3034-3.874-.91-1.092-.6067-1.924-1.456-2.496-2.548-.572-1.1094-.858-2.392-.858-3.848 0-1.4387.294-2.7127.884-3.822.589-1.1094 1.43-1.9674 2.522-2.574 1.092-.6067 2.357-.91 3.796-.91zm3.354 5.902c-.104-.936-.442-1.69-1.014-2.262-.555-.572-1.344-.858-2.366-.858-.936 0-1.699.26-2.288.78-.59.52-.98 1.3-1.17 2.34z"/><path d="m148.024 19.0119v13.416c0 1.82-.58 3.2846-1.742 4.394-1.161 1.1266-2.86 1.69-5.096 1.69-1.941 0-3.484-.4334-4.628-1.3-1.144-.8494-1.82-1.9934-2.028-3.432h3.562c.416 1.2826 1.448 1.924 3.094 1.924 1.144 0 1.976-.286 2.496-.858.52-.5547.78-1.378.78-2.47v-1.872c-.97 1.4906-2.435 2.236-4.394 2.236-1.23 0-2.314-.2774-3.25-.832-.918-.572-1.638-1.3867-2.158-2.444-.502-1.0574-.754-2.3054-.754-3.744 0-1.4387.252-2.6867.754-3.744.52-1.0574 1.24-1.8634 2.158-2.418.936-.572 2.02-.858 3.25-.858 1.976 0 3.441.7453 4.394 2.236v-1.924zm-6.994 10.92c1.162 0 2.054-.39 2.678-1.17s.936-1.794.936-3.042-.312-2.262-.936-3.042-1.516-1.17-2.678-1.17c-1.178 0-2.062.3986-2.652 1.196-.572.78-.858 1.7853-.858 3.016 0 1.2306.286 2.2446.858 3.042.59.78 1.474 1.17 2.652 1.17z"/><path d="m157.745 18.8559c.295 0 .59.026.884.078v3.562c-.312-.052-.641-.078-.988-.078-1.092 0-1.907.26-2.444.78-.537.5026-.875 1.1006-1.014 1.794-.139.676-.208 1.4646-.208 2.366v5.642h-3.562v-13.988h3.51v2.392c.763-1.6987 2.037-2.548 3.822-2.548z"/><path d="m166.6 18.6999c1.508 0 2.8.338 3.874 1.014 1.092.6586 1.898 1.6033 2.418 2.834.538 1.2306.763 2.678.676 4.342h-10.504c.122 1.1786.494 2.0713 1.118 2.678.624.6066 1.439.91 2.444.91.884 0 1.595-.2167 2.132-.65.555-.4334.928-.9794 1.118-1.638h3.614c-.312 1.6293-1.083 2.8946-2.314 3.796-1.213.884-2.73 1.326-4.55 1.326-1.49 0-2.782-.3034-3.874-.91-1.092-.6067-1.924-1.456-2.496-2.548-.572-1.1094-.858-2.392-.858-3.848 0-1.4387.295-2.7127.884-3.822.59-1.1094 1.43-1.9674 2.522-2.574 1.092-.6067 2.358-.91 3.796-.91zm3.354 5.902c-.104-.936-.442-1.69-1.014-2.262-.554-.572-1.343-.858-2.366-.858-.936 0-1.698.26-2.288.78-.589.52-.979 1.3-1.17 2.34z"/><path d="m181.848 18.6999c1.508 0 2.799.338 3.874 1.014 1.092.6586 1.898 1.6033 2.418 2.834.537 1.2306.762 2.678.676 4.342h-10.504c.121 1.1786.494 2.0713 1.118 2.678.624.6066 1.438.91 2.444.91.884 0 1.594-.2167 2.132-.65.554-.4334.927-.9794 1.118-1.638h3.614c-.312 1.6293-1.084 2.8946-2.314 3.796-1.214.884-2.73 1.326-4.55 1.326-1.491 0-2.782-.3034-3.874-.91-1.092-.6067-1.924-1.456-2.496-2.548-.572-1.1094-.858-2.392-.858-3.848 0-1.4387.294-2.7127.884-3.822.589-1.1094 1.43-1.9674 2.522-2.574 1.092-.6067 2.357-.91 3.796-.91zm3.354 5.902c-.104-.936-.442-1.69-1.014-2.262-.555-.572-1.344-.858-2.366-.858-.936 0-1.699.26-2.288.78-.59.52-.98 1.3-1.17 2.34z"/><path d="m196.596 33.3119c-2.115 0-3.753-.468-4.914-1.404s-1.82-2.1147-1.976-3.536h3.562c.468 1.4906 1.603 2.236 3.406 2.236.832 0 1.482-.1474 1.95-.442.468-.312.702-.7107.702-1.196 0-.52-.26-.884-.78-1.092-.503-.2254-1.369-.4507-2.6-.676-1.144-.1907-2.123-.416-2.938-.676-.815-.2774-1.517-.7107-2.106-1.3-.589-.5894-.884-1.378-.884-2.366 0-1.404.589-2.444 1.768-3.12 1.179-.6934 2.617-1.04 4.316-1.04 1.872 0 3.363.4073 4.472 1.222 1.127.8146 1.794 1.9066 2.002 3.276h-3.562c-.208-.572-.546-1.014-1.014-1.326-.451-.312-1.109-.468-1.976-.468-.745 0-1.343.1213-1.794.364-.433.2426-.65.572-.65.988 0 .364.173.6673.52.91.364.2253.763.39 1.196.494s1.179.26 2.236.468c1.872.3466 3.233.806 4.082 1.378s1.274 1.4386 1.274 2.6c0 1.4213-.546 2.5653-1.638 3.432-1.092.8493-2.643 1.274-4.654 1.274z"/><path d="m209.019 22.5479c-.78 0-1.508-.1734-2.184-.52-.659-.364-1.188-.8754-1.586-1.534-.382-.6587-.572-1.4214-.572-2.288 0-.8667.19-1.6294.572-2.288.398-.6587.927-1.1614 1.586-1.508.676-.364 1.404-.546 2.184-.546s1.499.182 2.158.546c.676.3466 1.213.858 1.612 1.534.398.6586.598 1.4126.598 2.262 0 .8493-.2 1.612-.598 2.288-.399.6586-.936 1.17-1.612 1.534-.659.3466-1.378.52-2.158.52zm0-2.184c.589 0 1.057-.1907 1.404-.572.364-.3987.546-.9274.546-1.586 0-.6587-.182-1.1787-.546-1.56-.347-.3814-.815-.572-1.404-.572-.572 0-1.04.1906-1.404.572-.347.3813-.52.9013-.52 1.56 0 .6586.173 1.1873.52 1.586.364.3813.832.572 1.404.572z"/><path clip-rule="evenodd" d="m209.035 16.2699c-1.075 0-1.945.8708-1.945 1.945s.87 1.945 1.945 1.945c1.074 0 1.945-.8708 1.945-1.945s-.871-1.945-1.945-1.945zm0 6.3c2.405 0 4.355-1.9498 4.355-4.355s-1.95-4.355-4.355-4.355c-2.406 0-4.355 1.9498-4.355 4.355s1.949 4.355 4.355 4.355z" fill-rule="evenodd"/></g></svg>